HIERARCHY
ROOT Hips
{
  OFFSET 11.6583 102.315 -101.75
  CHANNELS 6 Xposition Yposition Zposition Zrotation Xrotation Yrotation
  JOINT RightUpLeg
  {
    OFFSET -8.9458 -8.66707 0.101652
    CHANNELS 3 Zrotation Xrotation Yrotation
    JOINT RightLeg
    {
      OFFSET 0 -44.4227 1.3727
      CHANNELS 3 Zrotation Xrotation Yrotation
      JOINT RightFoot
      {
        OFFSET 0.253549 -42.0924 -1.46059
        CHANNELS 3 Zrotation Xrotation Yrotation
        JOINT RightToes
        {
          OFFSET 0.04 -4.41509 8.4991
          CHANNELS 3 Zrotation Xrotation Yrotation
          End Site
          {
            OFFSET -0.08 -0.137448 9.77979
          }
        }
      }
    }
  }
  JOINT Spine
  {
    OFFSET 0 11.8905 0
    CHANNELS 3 Zrotation Xrotation Yrotation
    JOINT Spine1
    {
      OFFSET 0 25.6574 0.127663
      CHANNELS 3 Zrotation Xrotation Yrotation
      JOINT HEad
      {
        OFFSET 0 8.73416 0.011341
        CHANNELS 3 Zrotation Xrotation Yrotation
        End Site
        {
          OFFSET -0.29 12.7742 2.51395
        }
      }
      JOINT LeftShoulder1
      {
        OFFSET 8.99 -0.362252 -0.22
        CHANNELS 3 Zrotation Xrotation Yrotation
        JOINT LeftArm
        {
          OFFSET 10.2827 -0.00338 0.322123
          CHANNELS 3 Zrotation Xrotation Yrotation
          JOINT LeftForeArm
          {
            OFFSET 32.7669 0.099144 -1.42434
            CHANNELS 3 Zrotation Xrotation Yrotation
            JOINT LeftHand
            {
              OFFSET 27.5643 0.085362 1.02216
              CHANNELS 3 Zrotation Xrotation Yrotation
              End Site
              {
                OFFSET 16.7443 -0.6 1.50291
              }
            }
          }
        }
      }
      JOINT RightShoulder
      {
        OFFSET -8.99 -0.362252 -0.22
        CHANNELS 3 Zrotation Xrotation Yrotation
        JOINT RightArm
        {
          OFFSET -10.2827 -0.00338 0.322123
          CHANNELS 3 Zrotation Xrotation Yrotation
          JOINT RightForeArm
          {
            OFFSET -32.8971 0.099144 -1.42434
            CHANNELS 3 Zrotation Xrotation Yrotation
            JOINT RightHand
            {
              OFFSET -27.4921 0.085362 1.02216
              CHANNELS 3 Zrotation Xrotation Yrotation
              End Site
              {
                OFFSET -16.6312 -0.6 1.50291
              }
            }
          }
        }
      }
    }
  }
  JOINT LeftUpLeg
  {
    OFFSET 8.9458 -8.66707 0.101652
    CHANNELS 3 Zrotation Xrotation Yrotation
    JOINT LeftLeg
    {
      OFFSET 0 -44.4227 1.3727
      CHANNELS 3 Zrotation Xrotation Yrotation
      JOINT LeftFoot
      {
        OFFSET -0.253549 -42.0924 -1.46059
        CHANNELS 3 Zrotation Xrotation Yrotation
        JOINT LeftToes
        {
          OFFSET -0.04 -4.41509 8.4991
          CHANNELS 3 Zrotation Xrotation Yrotation
          End Site
          {
            OFFSET 0.08 -0.047448 9.77979
          }
        }
      }
    }
  }
}
MOTION
Frames:	10
Frame Time:	0.0166667
11.6583 102.315 -101.75 -3.52703 0.0161334 2.82689 7.25698 -25.7079 -1.44108 -0.692703 26.8525 -11.1445 0.0872812 -4.51764 -0.210535 0.0462048 0.000533964 0.662642 0.498068 3.30785 0.162902 1.7231 -4.95594 -0.269386 2.66898 1.66023 -1.76808 2.60905e-016 0 -0 -90.0409 -25.3329 -14.6678 -22.1889 12.4135 -2.61831 0.368473 9.90896 -0.00117927 1.20808 -0.00303686 -3.53549 84.1833 -38.6774 3.76124 11.5788 13.1071 5.07692 -0.369625 9.91382 0.00119887 6.23766 0.817959 0.744281 -7.66512 36.4737 7.81025 -9.66599 -2.59507 0.0662195 -1.63496e-011 2.04955e-011 -1.31611e-011 
11.3773 102.252 -100.062 -4.01088 -0.00137437 3.0131 7.81149 -25.2072 -2.30194 -0.787993 28.0291 -10.3067 0.068384 -5.88478 -0.214481 -0.263274 -1.42753 0.370575 0.985425 3.41413 0.117166 2.05026 -5.05965 -0.272668 2.79193 1.44202 -2.11569 -1.73937e-016 3.97569e-016 3.97569e-016 -90.1847 -26.2059 -14.1561 -21.5231 12.3699 -2.18362 0.368473 9.90896 -0.00117927 1.14985 -0.0237957 -3.75571 84.6836 -38.5099 4.45924 11.4185 13.1048 5.07599 -0.369625 9.91382 0.00119887 7.11149 -0.93027 2.38224 -6.05005 40.2219 6.85691 -10.2907 0.5804 0.361864 -1.63496e-011 2.04923e-011 -1.31611e-011 
11.1048 102.19 -98.4106 -4.4902 -0.00456422 3.24332 8.36337 -24.7045 -2.99893 -0.830056 29.1204 -9.69099 0.0479624 -7.18583 -0.219529 -0.79563 -2.81495 -0.129148 1.51395 3.51218 0.0611098 2.35725 -5.1272 -0.276159 2.92034 1.22477 -2.44536 -2.36057e-016 -1.98785e-016 -3.97569e-016 -90.3105 -27.0242 -13.7407 -20.8878 12.32 -1.7154 0.368473 9.90896 -0.00117927 1.13418 -0.0383081 -3.9091 85.0998 -38.3143 5.13355 11.3111 13.111 5.15148 -0.369625 9.91382 0.00119887 7.95086 -2.7971 3.53896 -4.42415 43.9826 6.03577 -10.8819 3.72343 0.665318 -1.63496e-011 2.0505e-011 -1.31611e-011 
10.8503 102.113 -96.8604 -4.99575 0.0333321 3.60584 8.90935 -24.2344 -3.26213 -0.625716 30.0163 -9.72568 0.00911199 -8.30424 -0.228792 -2.17539 -4.10887 -1.42289 2.21711 3.59423 -0.0345892 2.62006 -5.09534 -0.280678 3.06885 1.04942 -2.73358 1.2424e-017 1.98785e-016 -3.97569e-016 -90.4095 -27.7056 -13.5748 -20.32 12.2549 -1.16036 0.368473 9.90896 -0.00117927 1.27795 -0.0351805 -3.87258 85.2357 -38.0503 5.71096 11.3721 13.1433 5.46716 -0.369625 9.91382 0.00119887 8.45502 -5.02534 3.44471 -3.01921 47.8665 5.45619 -11.3642 6.8935 1.00848 -1.63465e-011 2.05019e-011 -1.31627e-011 
10.6188 102.066 -95.3703 -5.41924 0.0891575 4.01189 9.35227 -23.7124 -3.28694 -0.289246 30.7046 -10.1135 -0.00307218 -9.32523 -0.236734 -3.44867 -5.29956 -2.58988 2.85865 3.65073 -0.123218 2.83007 -5.00914 -0.284588 3.22746 0.796822 -2.97937 1.2424e-017 -1.98785e-016 3.97569e-016 -90.5374 -28.27 -13.6138 -19.8311 12.1776 -0.544092 0.368473 9.90896 -0.00117927 1.40159 -0.0236723 -3.74807 85.3589 -37.7457 6.32644 11.4655 13.1819 5.83759 -0.369625 9.91382 0.00119887 8.67037 -7.39421 2.46654 -2.09022 51.5808 5.83293 -11.7042 9.78217 1.33203 -1.6356e-011 2.04987e-011 -1.31611e-011 
10.419 102.109 -93.926 -5.62851 0.148108 4.40855 9.56289 -23.0316 -3.09819 0.137321 31.0902 -10.8133 0.088673 -10.3168 -0.236172 -3.28039 -6.29009 -2.42516 3.17684 3.66589 -0.155534 2.95902 -4.87961 -0.285887 3.41468 0.284308 -3.15655 -1.86361e-016 1.98785e-016 -0 -90.7858 -28.6835 -13.9423 -19.4303 12.0845 0.164142 0.368473 9.90896 -0.00117927 1.34075 -0.0118328 -3.62907 85.7165 -37.403 7.12931 11.4808 13.2129 6.1215 -0.369625 9.91382 0.00119887 8.54005 -9.7541 0.445049 -2.6206 54.7541 8.70638 -11.9575 12.4991 1.63719 -1.63576e-011 2.05082e-011 -1.31627e-011 
10.2493 102.184 -92.511 -5.72403 0.211981 4.77667 9.64932 -22.2843 -2.93131 0.53359 31.3089 -11.4377 0.172328 -11.2141 -0.235013 -3.15735 -7.31145 -2.34403 3.3807 3.65082 -0.168386 3.04167 -4.74569 -0.286506 3.55383 -0.256341 -3.3177 3.72721e-017 0 -1.59028e-015 -91.0243 -29.0214 -14.3217 -19.1605 11.9874 0.848534 0.368473 9.90896 -0.00117927 1.16641 0.00812063 -3.41784 86.1637 -37.0464 7.99726 11.4586 13.2383 6.34959 -0.369625 9.91382 0.00119887 8.09112 -12.0925 -1.862 -4.02899 57.4905 12.8207 -11.7096 13.8519 1.75505 -1.63576e-011 2.04955e-011 -1.31627e-011 
10.1136 102.255 -91.1021 -5.75759 0.287075 5.08324 9.68639 -21.5299 -3.07221 0.74838 31.4432 -11.4678 0.111593 -11.9071 -0.242096 -4.85283 -8.74592 -3.95728 3.58913 3.60491 -0.180493 3.1161 -4.67686 -0.288322 3.52892 -0.649874 -3.53497 8.69683e-017 -7.45443e-017 1.59028e-015 -91.1298 -29.3374 -14.5256 -19.0874 11.8879 1.46098 0.368473 9.90896 -0.00117927 0.891748 0.0457164 -3.00626 86.5993 -36.7164 8.82768 11.4129 13.2556 6.50402 -0.369625 9.91382 0.00119887 7.52249 -14.3874 -3.63487 -5.38229 60.0317 17.1018 -10.2128 11.8857 1.38409 -1.63576e-011 2.04955e-011 -1.3158e-011 
10.0043 102.312 -89.7059 -5.74195 0.345191 5.31689 9.70281 -20.7635 -3.37107 0.803182 31.5884 -11.2477 0.05492 -12.5992 -0.24769 -6.55444 -10.0105 -5.52026 3.81122 3.54748 -0.197026 3.14412 -4.59252 -0.28949 3.48095 -0.909643 -3.72213 -1.5763e-016 2.48481e-017 -1.59028e-015 -91.1438 -29.6733 -14.5911 -19.157 11.8185 1.83025 0.368473 9.90896 -0.00117927 0.524594 0.087727 -2.51894 87.155 -36.3741 9.72102 11.312 13.2646 6.58916 -0.369625 9.91382 0.00119887 6.82609 -16.5612 -5.13816 -6.78706 61.9991 21.052 -8.56091 8.99681 0.923372 -1.63512e-011 2.05082e-011 -1.31532e-011 
9.91578 102.324 -88.3228 -5.70663 0.347746 5.44806 9.7588 -20.0123 -3.84847 0.59383 31.9316 -10.8964 0.153854 -13.5529 -0.241088 -6.34997 -10.3645 -5.32654 4.1091 3.50093 -0.235259 3.08384 -4.40086 -0.288483 3.52505 -0.955861 -3.86591 2.04997e-016 2.48481e-017 -0 -91.0758 -30.12 -14.4736 -19.3318 11.8196 1.72393 0.368473 9.90896 -0.00117927 0.0560486 0.123434 -2.04637 87.9961 -35.9919 10.793 11.0943 13.2611 6.5847 -0.369625 9.91382 0.00119887 6.04587 -18.5312 -6.31308 -7.35971 63.2223 22.9978 -7.6568 7.26509 0.70728 -1.63512e-011 2.05082e-011 -1.31595e-011 
